<!DOCTYPE svg PUBLIC "-//W3C//DTD SVG 20010904//EN" "http://www.w3.org/TR/2001/REC-SVG-20010904/DTD/svg10.dtd">
<svg version="1.0" xmlns="http://www.w3.org/2000/svg" width="600px" height="304px" viewBox="0 0 6000 3040" preserveAspectRatio="xMidYMid meet">
<g id="layer101" fill="#080606" stroke="none">
 <path d="M2799 2941 c-13 -10 -42 -27 -64 -39 -48 -24 -124 -96 -161 -151 -14 -23 -27 -41 -28 -41 0 0 -26 10 -56 21 -43 17 -79 22 -165 23 -101 1 -115 -1 -170 -27 -33 -15 -62 -31 -65 -36 -3 -4 -41 -22 -85 -40 -50 -21 -94 -47 -117 -70 -20 -20 -61 -49 -90 -64 -30 -15 -78 -45 -107 -67 -29 -22 -67 -47 -85 -55 -18 -9 -55 -37 -83 -64 -29 -27 -61 -52 -72 -56 -12 -3 -21 -11 -21 -16 0 -5 -6 -9 -14 -9 -7 0 -33 -17 -57 -38 -24 -22 -63 -51 -86 -66 -24 -14 -43 -30 -43 -34 0 -4 -25 -27 -55 -51 -30 -24 -55 -52 -55 -61 0 -9 -12 -23 -27 -31 -38 -19 -40 -21 -203 -182 -80 -78 -152 -154 -159 -169 -8 -15 -32 -44 -53 -63 -21 -20 -38 -42 -38 -49 0 -7 -17 -27 -38 -45 -58 -52 -213 -243 -333 -411 -14 -19 -37 -47 -51 -61 -13 -13 -41 -54 -61 -90 -20 -36 -46 -74 -57 -84 -11 -10 -20 -26 -20 -35 0 -10 -6 -23 -14 -29 -19 -16 -36 -89 -36 -152 0 -50 2 -55 51 -102 l52 -50 76 7 c41 4 78 11 81 15 3 5 99 13 215 20 292 16 595 41 623 52 13 5 26 18 29 29 3 11 11 20 19 20 7 0 16 12 20 28 15 70 55 168 73 182 7 5 81 165 81 175 0 3 11 16 25 29 17 16 25 34 25 58 0 19 4 38 9 44 5 5 26 41 46 79 43 79 71 116 133 177 23 22 42 45 42 50 0 4 20 33 45 64 25 30 45 63 45 73 0 10 17 33 38 52 l39 35 33 -99 c18 -54 51 -132 72 -173 47 -91 48 -116 6 -164 -18 -20 -46 -52 -62 -71 l-29 -34 9 -130 c12 -180 8 -255 -14 -277 -9 -9 -42 -23 -72 -30 -43 -10 -55 -17 -55 -33 0 -14 10 -22 35 -29 19 -5 37 -13 40 -16 3 -4 14 -10 24 -14 30 -10 7 -26 -70 -47 -37 -10 -72 -23 -77 -28 -19 -19 2 -39 52 -51 28 -7 51 -17 51 -23 -1 -20 -90 -79 -154 -102 -34 -12 -104 -35 -156 -50 -52 -15 -99 -31 -105 -35 -5 -4 -31 -11 -57 -14 -37 -6 -48 -11 -48 -25 0 -20 29 -43 70 -56 14 -4 27 -11 30 -16 25 -37 860 -38 945 0 11 5 70 18 130 30 111 20 296 69 305 80 3 4 30 15 60 25 79 27 150 64 189 98 18 16 43 33 55 38 19 7 198 135 269 192 15 13 56 38 90 56 34 18 69 41 77 51 27 31 47 32 66 4 25 -39 149 -163 162 -163 7 0 12 9 12 19 0 11 5 23 10 26 6 3 10 18 10 32 0 25 0 25 28 8 15 -10 32 -23 37 -30 6 -6 48 -31 95 -55 47 -24 94 -52 105 -61 26 -23 178 -89 203 -89 21 0 32 18 32 51 0 16 4 18 18 10 31 -16 378 -80 439 -81 17 0 33 -5 35 -11 5 -15 466 -18 476 -3 4 7 60 13 142 17 151 6 263 32 268 61 3 11 -6 21 -27 29 -17 6 -31 14 -31 18 0 4 -12 10 -26 13 -41 11 -208 87 -219 101 -6 6 -35 26 -66 44 -31 17 -70 44 -85 59 -16 14 -52 42 -81 62 -115 79 -283 243 -344 336 l-26 40 27 32 c14 18 30 32 33 32 4 0 31 15 60 34 28 19 66 37 83 41 28 5 54 37 54 65 0 6 -19 22 -42 36 -52 32 -68 51 -68 81 0 29 25 30 103 3 31 -11 89 -25 129 -30 40 -6 75 -15 78 -19 3 -5 19 -12 35 -16 17 -4 57 -15 90 -25 33 -10 86 -25 117 -34 41 -12 61 -24 75 -45 27 -42 81 -101 93 -101 5 0 10 16 10 35 0 19 -4 35 -10 35 -15 0 -12 78 3 83 6 2 29 -2 51 -9 43 -16 106 -19 106 -6 0 12 -30 37 -55 47 -18 7 -18 8 8 17 35 12 35 34 -2 52 -27 15 -28 17 -18 55 9 34 15 40 44 46 43 8 41 34 -2 47 -57 18 -140 52 -151 63 -8 8 45 23 190 53 181 38 204 45 227 71 37 40 45 101 19 154 -28 59 -59 109 -76 122 -23 17 -42 77 -49 158 -6 60 -12 83 -28 98 -11 10 -26 19 -33 19 -7 0 -19 6 -26 13 -7 7 -25 20 -41 30 -15 10 -36 39 -48 65 -59 137 -84 177 -108 177 -21 0 -27 -7 -37 -49 -7 -27 -16 -52 -21 -56 -4 -4 -53 7 -108 26 -55 18 -107 33 -117 34 -9 0 -18 4 -20 10 -1 5 -78 13 -170 18 l-166 10 -41 33 c-22 19 -43 42 -47 51 -5 18 -50 36 -60 25 -4 -3 -11 -43 -16 -88 l-11 -82 -171 6 c-302 12 -411 18 -431 27 -11 5 -114 11 -230 15 -343 9 -484 31 -621 96 -38 17 -106 44 -152 60 -46 15 -91 34 -101 43 -10 9 -22 16 -27 17 -5 0 -40 36 -79 79 -38 44 -77 79 -86 80 -9 0 -27 -8 -40 -19z"/>
 </g>
<g id="layer102" fill="#ae110e" stroke="none">
 <path d="M2707 2741 c-56 -55 -87 -93 -83 -100 12 -18 99 -54 204 -84 52 -15 144 -48 205 -73 l112 -46 67 11 c81 13 148 14 168 1 11 -7 4 -14 -32 -30 -26 -11 -51 -28 -56 -37 -9 -15 -16 -14 -73 9 -119 48 -326 123 -424 152 -22 7 -47 15 -55 18 -8 3 -35 11 -59 18 -24 6 -91 34 -150 62 -90 43 -117 51 -182 55 -87 6 -141 -9 -293 -84 -49 -23 -95 -43 -102 -43 -23 0 -134 -90 -134 -108 0 -22 19 -42 40 -42 8 0 62 28 120 61 103 61 300 149 330 149 8 0 47 -12 85 -26 39 -14 86 -30 105 -34 45 -11 289 -101 361 -133 69 -30 93 -40 339 -135 203 -79 412 -138 444 -126 29 11 11 28 -60 57 -105 43 -251 114 -259 126 -10 16 4 13 40 -9 l33 -20 83 20 c106 25 167 25 354 -1 131 -19 180 -21 380 -16 312 8 395 26 395 88 0 16 -10 18 -82 16 -46 -1 -130 4 -187 11 -57 7 -160 12 -230 12 -69 1 -171 5 -226 10 -55 5 -167 15 -250 21 -111 9 -166 18 -213 35 -35 13 -109 37 -166 53 -129 37 -282 104 -319 139 -16 15 -42 46 -58 70 -45 64 -64 59 -172 -47z"/>
 <path d="M4785 2558 c4 -46 10 -101 14 -123 6 -40 7 -40 51 -40 l45 0 -3 40 c-5 77 -67 205 -100 205 -12 0 -13 -13 -7 -82z"/>
 <path d="M2220 2567 c-70 -24 -222 -111 -267 -151 -49 -45 -51 -66 -7 -66 14 0 53 -11 87 -24 34 -13 85 -31 112 -41 28 -10 59 -23 71 -30 12 -8 57 -18 100 -24 43 -6 117 -15 164 -21 99 -13 234 -46 270 -65 25 -14 232 -65 263 -65 20 0 22 21 5 38 -18 18 9 15 83 -8 107 -35 156 -14 72 30 l-48 25 37 3 c20 2 50 -4 66 -12 47 -24 121 -37 169 -30 82 12 52 42 -122 118 -60 27 -112 53 -115 57 -3 4 -31 15 -62 23 -30 8 -120 38 -199 66 -79 29 -164 58 -189 65 -25 7 -63 19 -85 28 -22 8 -71 25 -110 37 -38 13 -78 30 -88 38 -23 20 -159 26 -207 9z"/>
 <path d="M5556 2518 c-3 -13 -6 -38 -6 -55 0 -27 5 -34 26 -39 42 -11 48 8 24 65 -25 56 -35 63 -44 29z"/>
 <path d="M4711 2438 c-26 -77 -26 -80 2 -76 27 4 54 71 43 111 -10 42 -22 32 -45 -35z"/>
 <path d="M4926 2473 c-3 -3 -6 -18 -6 -33 l0 -27 123 -6 c130 -6 303 -39 436 -83 79 -26 97 -25 65 6 -49 48 -309 128 -438 136 -50 2 -110 7 -132 9 -23 2 -44 1 -48 -2z"/>
 <path d="M1746 2350 c-61 -39 -157 -130 -150 -141 10 -16 23 -9 86 44 35 28 80 65 101 80 69 52 39 65 -37 17z"/>
 <path d="M3599 2304 c-17 -21 0 -48 33 -52 18 -2 32 5 47 24 11 15 21 31 21 35 0 16 -87 10 -101 -7z"/>
 <path d="M4865 2296 c-210 -54 -386 -123 -525 -208 -92 -56 -407 -179 -542 -212 -403 -99 -551 -121 -813 -120 -110 0 -216 3 -236 7 -37 8 -89 47 -89 67 0 6 53 66 118 133 l117 122 -63 9 -64 9 -88 -88 c-96 -96 -137 -159 -146 -226 -13 -94 58 -114 366 -106 175 5 228 10 359 37 84 17 159 33 165 36 6 3 -6 -9 -26 -26 -36 -30 -50 -60 -28 -60 6 0 83 27 173 59 149 54 212 79 487 191 52 21 138 56 190 77 52 20 120 52 150 70 65 38 216 95 239 91 9 -2 -22 -19 -69 -37 -47 -19 -127 -60 -179 -92 -52 -33 -98 -59 -102 -59 -5 0 -25 -12 -46 -26 -40 -27 -342 -177 -403 -199 -19 -8 -96 -41 -170 -75 -318 -145 -556 -210 -771 -212 -72 0 -157 17 -145 29 3 3 46 12 96 19 49 7 103 20 118 28 25 14 8 15 -190 16 -216 0 -216 0 -295 30 -114 44 -141 62 -149 105 -3 19 -3 50 0 68 8 44 87 147 214 277 56 58 102 109 102 112 0 10 -88 36 -161 48 -44 8 -78 8 -101 2 -25 -7 -41 -6 -59 3 -13 7 -67 25 -119 40 -52 15 -103 31 -113 36 -19 10 -37 4 -37 -11 0 -6 15 -16 34 -24 18 -8 36 -18 39 -23 8 -13 -11 -40 -21 -28 -10 14 -118 19 -126 6 -4 -5 14 -19 40 -30 26 -12 44 -26 42 -33 -3 -7 -25 -17 -51 -23 -47 -10 -52 -26 -12 -38 169 -52 156 -53 253 31 34 30 65 53 68 50 5 -6 -95 -101 -152 -144 -34 -27 -36 -27 -70 -11 -19 10 -39 17 -45 17 -6 0 -92 32 -192 71 -232 91 -230 90 -257 72 -28 -19 -22 -32 20 -48 432 -159 450 -167 450 -182 0 -8 -10 -27 -22 -43 -32 -44 -36 -159 -9 -274 23 -96 37 -119 133 -223 32 -34 58 -67 58 -73 0 -5 -12 -13 -27 -16 -73 -17 -164 -103 -242 -229 -36 -58 -36 -59 -36 -165 1 -159 29 -189 124 -135 l43 25 -6 -27 c-7 -31 -49 -73 -72 -73 -8 0 -14 -5 -14 -11 0 -17 75 -5 135 21 108 46 51 -16 -96 -105 -57 -35 -105 -68 -107 -74 -8 -24 30 -21 95 8 104 46 100 30 -15 -57 -100 -76 -304 -205 -378 -239 -54 -25 -56 -27 -33 -35 43 -16 496 20 580 46 24 7 96 30 159 49 164 51 317 112 375 151 60 40 241 193 347 295 91 86 127 138 163 232 15 38 32 72 38 76 5 3 111 12 233 19 l223 13 182 60 c100 34 185 58 188 55 3 -2 -1 -14 -8 -26 -11 -17 -11 -22 1 -29 19 -12 66 -11 74 2 6 10 204 109 218 109 13 0 5 -37 -21 -102 -14 -38 -24 -70 -21 -73 9 -9 59 18 200 105 101 63 134 88 125 96 -14 13 -205 97 -262 114 -22 7 -62 24 -90 36 -27 13 -62 24 -77 24 -14 0 -82 -29 -150 -64 -129 -67 -210 -96 -409 -146 -116 -30 -288 -60 -338 -60 l-24 0 23 25 c13 14 21 28 18 31 -4 3 -102 10 -219 15 -271 12 -416 43 -591 129 -73 35 -89 54 -35 40 79 -21 237 -34 422 -34 185 -1 209 1 315 27 168 40 282 74 394 119 54 21 101 36 104 33 3 -2 -2 -13 -10 -22 -19 -23 -48 -97 -48 -124 0 -19 4 -21 39 -15 75 12 171 46 171 61 0 8 -6 15 -14 15 -20 0 -46 39 -46 67 0 16 -6 23 -19 23 -30 0 -34 17 -9 34 13 8 84 31 158 51 74 20 176 56 227 80 93 44 110 43 73 -5 -46 -58 -17 -96 67 -87 72 8 90 -3 105 -60 11 -47 78 -133 102 -133 6 0 48 14 94 32 64 25 84 37 88 55 9 35 -1 50 -47 73 -29 15 -38 25 -31 32 8 8 48 4 136 -11 91 -15 132 -18 151 -11 15 6 44 10 66 10 59 0 79 14 79 55 0 34 -3 37 -75 72 -41 21 -75 40 -75 44 0 27 116 12 182 -23 38 -21 57 -23 173 -23 113 0 136 3 178 22 26 12 47 29 47 37 0 9 -18 25 -40 36 -23 12 -40 28 -40 38 0 55 104 207 164 239 18 10 18 12 2 34 -25 37 -95 88 -135 99 -156 44 -457 63 -566 36z m-2338 -1126 c100 -22 163 -30 234 -30 117 0 133 -4 118 -32 -6 -11 -9 -22 -6 -24 2 -2 35 0 73 6 82 12 154 13 154 3 0 -45 -176 -217 -330 -325 -115 -80 -258 -167 -302 -185 -24 -9 -65 -31 -93 -49 -46 -29 -318 -161 -409 -198 -83 -34 -47 0 79 74 42 25 100 63 128 85 29 22 91 62 139 90 90 51 340 251 358 286 13 23 16 22 -109 49 -104 23 -136 35 -111 43 133 42 201 69 197 80 -2 6 -60 40 -129 76 -118 62 -150 81 -135 81 4 0 68 -13 144 -30z"/>
 <path d="M3768 2288 c-28 -22 -62 -148 -40 -148 12 0 126 101 130 114 2 11 -47 46 -65 46 -5 0 -16 -6 -25 -12z"/>
 <path d="M1443 2273 c-20 -7 -16 -21 19 -64 32 -40 55 -48 76 -27 17 17 15 23 -19 63 -29 33 -48 40 -76 28z"/>
 <path d="M3926 2245 c-16 -17 -11 -45 8 -45 7 0 25 14 41 30 l29 30 -31 0 c-18 0 -38 -7 -47 -15z"/>
 <path d="M4288 2249 c-22 -12 -24 -49 -3 -49 14 0 35 29 35 49 0 14 -10 13 -32 0z"/>
 <path d="M4102 2238 c-14 -14 -16 -38 -4 -38 12 0 32 23 32 37 0 16 -12 17 -28 1z"/>
 <path d="M4178 2213 c-77 -84 -76 -103 7 -103 63 0 65 1 65 25 0 28 -29 105 -39 105 -4 0 -19 -12 -33 -27z"/>
 <path d="M3984 2155 c-17 -23 -27 -49 -28 -73 -1 -36 0 -37 39 -40 22 -2 48 3 58 10 17 12 17 16 2 57 -8 24 -15 52 -15 62 0 30 -27 22 -56 -16z"/>
 <path d="M3815 2156 c-22 -22 -45 -81 -45 -117 0 -20 41 -59 64 -59 9 0 26 5 37 10 21 12 25 56 13 144 -8 54 -30 61 -69 22z"/>
 <path d="M1439 2095 c-45 -30 -169 -164 -169 -184 0 -15 18 0 152 129 85 82 92 105 17 55z"/>
 <path d="M3633 2103 c-17 -6 -17 -84 0 -107 10 -14 21 -16 50 -11 35 7 37 10 37 44 0 62 -38 94 -87 74z"/>
 <path d="M1895 2090 c3 -5 13 -10 21 -10 8 0 12 5 9 10 -3 6 -13 10 -21 10 -8 0 -12 -4 -9 -10z"/>
 <path d="M3448 2088 c-21 -18 -39 -75 -32 -104 6 -25 20 -31 84 -37 23 -3 17 -4 -20 -5 -30 -1 -71 1 -91 4 -32 6 -35 8 -31 35 2 16 -1 43 -8 59 -11 27 -17 30 -57 30 -60 0 -98 -36 -90 -85 6 -36 -4 -45 -48 -45 -23 0 -23 1 -10 27 10 18 11 32 4 45 -21 39 -127 9 -116 -33 4 -16 -2 -18 -65 -16 -78 2 -96 -10 -85 -54 5 -19 19 -29 58 -43 47 -17 71 -18 261 -12 225 8 292 16 462 60 62 16 93 37 82 55 -9 13 -43 14 -82 2 -16 -5 -49 -11 -75 -14 l-45 -4 4 59 c3 33 1 63 -4 68 -17 15 -80 20 -96 8z"/>
 <path d="M1083 1966 c-13 -6 -23 -13 -23 -16 1 -3 21 -27 46 -54 45 -49 46 -49 72 -34 15 9 28 20 29 25 5 14 -72 93 -88 92 -8 -1 -24 -6 -36 -13z"/>
 <path d="M1835 1938 c-6 -21 -17 -34 -30 -36 -41 -6 -49 -12 -37 -24 18 -18 15 -24 -18 -38 -33 -14 -40 -30 -12 -30 9 0 38 -7 63 -16 27 -10 57 -14 72 -10 33 8 152 125 140 137 -14 14 -119 49 -146 49 -17 0 -25 -8 -32 -32z"/>
 <path d="M5507 1913 c-4 -3 -7 -17 -7 -30 0 -17 6 -23 23 -23 12 0 29 5 37 10 13 9 12 13 -9 30 -25 21 -34 24 -44 13z"/>
 <path d="M1241 1855 c-17 -15 -29 -31 -26 -35 3 -5 31 -14 63 -20 31 -6 153 -34 271 -61 226 -53 276 -58 276 -24 0 28 -24 36 -290 101 -132 31 -245 59 -251 61 -6 2 -25 -8 -43 -22z"/>
 <path d="M1622 1838 c2 -6 10 -14 16 -16 7 -2 10 2 6 12 -7 18 -28 22 -22 4z"/>
 <path d="M5657 1824 c-11 -12 3 -24 29 -24 27 0 32 15 8 24 -20 8 -29 8 -37 0z"/>
 <path d="M1024 1698 c-101 -103 -204 -220 -204 -232 0 -3 9 -6 19 -6 17 0 100 85 249 254 48 55 64 86 44 86 -4 0 -53 -46 -108 -102z"/>
 <path d="M1410 1708 c0 -9 13 -18 31 -22 33 -6 118 -56 119 -68 0 -5 -45 -8 -99 -8 -60 0 -102 -4 -106 -11 -4 -6 2 -13 14 -16 12 -3 21 -9 21 -13 0 -4 25 -15 55 -25 30 -9 55 -20 55 -25 0 -4 -27 -13 -60 -19 -111 -22 -89 -51 40 -51 117 0 152 12 191 63 18 23 45 53 61 67 23 22 45 83 27 77 -4 -1 -15 5 -25 14 -13 12 -54 20 -129 28 -60 6 -129 14 -152 17 -34 5 -43 4 -43 -8z"/>
 <path d="M5356 1627 c-19 -14 -15 -37 7 -37 7 0 30 -9 51 -20 22 -11 61 -27 88 -36 26 -8 48 -20 48 -25 0 -15 15 -10 44 12 25 20 26 22 11 39 -21 24 -134 69 -188 76 -28 4 -48 1 -61 -9z"/>
 <path d="M4093 1584 c-13 -6 -8 -51 7 -68 11 -12 80 13 80 29 0 25 -58 51 -87 39z"/>
 <path d="M5190 1566 c-103 -25 -155 -35 -212 -41 -32 -4 -58 -10 -58 -14 0 -15 72 -41 234 -86 188 -51 262 -78 292 -106 30 -28 34 -24 34 30 0 46 -2 51 -37 73 l-38 23 27 3 c15 2 44 -1 65 -7 30 -9 41 -8 53 4 25 26 0 47 -106 89 -111 44 -172 51 -254 32z"/>
 <path d="M664 1542 c-6 -4 -18 -22 -27 -41 l-16 -33 48 -51 c53 -56 60 -56 93 1 l17 29 -52 51 c-29 29 -57 48 -63 44z"/>
 <path d="M833 1413 c-3 -10 -12 -25 -20 -35 -8 -9 -10 -18 -5 -21 4 -3 178 -7 386 -8 l378 -1 29 28 c57 55 64 54 -366 54 -368 0 -396 -1 -402 -17z"/>
 <path d="M693 1324 c-6 -3 -46 -46 -88 -95 -62 -74 -74 -93 -65 -105 21 -24 35 -16 91 53 109 135 125 172 62 147z"/>
 <path d="M1270 1311 c0 -6 -7 -11 -16 -11 -8 0 -12 -4 -9 -10 3 -5 14 -10 24 -10 9 0 26 -7 37 -15 28 -21 6 -32 -83 -40 -40 -4 -70 -11 -68 -16 3 -4 26 -18 50 -30 50 -25 57 -38 23 -41 -13 -1 -34 -2 -48 -3 -14 -1 -35 -2 -48 -3 -17 -2 -22 -7 -20 -19 3 -16 20 -19 138 -23 79 -4 -35 -7 -273 -8 l-409 -2 -30 -31 c-18 -17 -27 -34 -22 -39 5 -5 199 -10 431 -11 466 -1 453 -3 453 60 0 17 11 49 25 71 14 22 25 42 25 44 0 3 14 28 30 56 17 28 30 52 30 54 0 12 -68 26 -147 32 -67 5 -93 3 -93 -5z"/>
 <path d="M362 1175 c-33 -47 -39 -61 -23 -50 5 3 12 -3 16 -14 6 -20 79 -91 93 -91 15 0 54 69 48 87 -3 10 -28 40 -54 66 l-48 47 -32 -45z"/>
 <path d="M1063 973 c-18 -2 -33 -8 -33 -14 0 -5 -10 -9 -21 -9 -18 0 -19 -2 -9 -15 7 -8 20 -15 29 -15 10 0 25 -6 35 -13 18 -13 5 -19 -161 -69 -50 -15 -40 -21 21 -14 39 5 64 3 91 -8 39 -17 43 -42 6 -40 -34 1 -24 -24 12 -31 17 -3 66 -5 107 -3 84 3 75 -5 130 125 48 114 49 113 -72 111 -57 0 -118 -3 -135 -5z"/>
 <path d="M403 938 c-36 -40 -153 -219 -153 -234 0 -31 28 -11 80 58 68 89 130 180 130 191 0 16 -38 6 -57 -15z"/>
 <path d="M4175 914 c-127 -35 -199 -72 -203 -105 -4 -34 47 -67 228 -147 246 -109 370 -145 635 -187 164 -25 280 -32 289 -16 9 14 -124 92 -304 178 -156 75 -355 185 -482 266 -31 21 -61 37 -65 36 -4 0 -48 -11 -98 -25z"/>
 <path d="M62 748 c-16 -21 -32 -89 -32 -143 0 -45 2 -50 23 -51 12 0 34 -4 48 -8 23 -7 30 -2 63 47 41 59 44 93 11 111 -11 6 -36 21 -56 33 -41 27 -43 27 -57 11z"/>
 <path d="M1038 705 c-2 -3 -170 -14 -373 -25 l-369 -20 -28 -27 c-48 -46 -83 -102 -70 -115 15 -15 398 6 720 41 144 16 265 31 268 34 3 3 10 23 15 44 12 54 -12 73 -95 73 -35 0 -65 -2 -68 -5z"/>
 </g>
<g id="layer103" fill="#9c7d58" stroke="none">
 <path d="M2707 2741 c-56 -55 -87 -93 -83 -100 12 -18 99 -54 204 -84 52 -15 144 -48 205 -73 l112 -46 67 11 c81 13 148 14 167 2 11 -7 3 -15 -34 -33 -53 -25 -70 -48 -35 -48 13 0 37 -9 55 -20 l33 -20 83 20 c106 25 167 25 354 -1 131 -19 180 -21 380 -16 312 8 395 26 395 88 0 16 -10 18 -82 16 -46 -1 -130 4 -187 11 -57 7 -160 12 -230 12 -69 1 -171 5 -226 10 -55 5 -167 15 -250 21 -111 9 -166 18 -213 35 -35 13 -109 37 -166 53 -129 37 -282 104 -319 139 -16 15 -42 46 -58 70 -45 64 -64 59 -172 -47z"/>
 <path d="M4785 2558 c4 -46 10 -101 14 -123 6 -40 7 -40 51 -40 l45 0 -3 40 c-5 77 -67 205 -100 205 -12 0 -13 -13 -7 -82z"/>
 <path d="M5556 2518 c-3 -13 -6 -38 -6 -55 0 -27 5 -34 26 -39 42 -11 48 8 24 65 -25 56 -35 63 -44 29z"/>
 <path d="M4711 2438 c-26 -77 -26 -80 2 -76 27 4 54 71 43 111 -10 42 -22 32 -45 -35z"/>
 <path d="M4926 2473 c-3 -3 -6 -18 -6 -33 l0 -27 123 -6 c130 -6 303 -39 436 -83 79 -26 97 -25 65 6 -49 48 -309 128 -438 136 -50 2 -110 7 -132 9 -23 2 -44 1 -48 -2z"/>
 <path d="M1746 2350 c-61 -39 -157 -130 -150 -141 10 -16 23 -9 86 44 35 28 80 65 101 80 69 52 39 65 -37 17z"/>
 <path d="M3599 2304 c-17 -21 0 -48 33 -52 18 -2 32 5 47 24 11 15 21 31 21 35 0 16 -87 10 -101 -7z"/>
 <path d="M4865 2296 c-210 -54 -386 -123 -525 -208 -92 -56 -407 -179 -542 -212 -403 -99 -551 -121 -813 -120 -110 0 -216 3 -236 7 -37 8 -89 47 -89 67 0 6 53 66 118 133 l117 122 -63 9 -64 9 -88 -88 c-96 -96 -137 -159 -146 -226 -13 -94 58 -114 366 -106 175 5 228 10 359 37 84 17 159 33 165 36 6 3 -6 -9 -26 -26 -36 -30 -50 -60 -28 -60 6 0 83 27 173 59 149 54 212 79 487 191 52 21 138 56 190 77 52 20 120 52 150 70 65 38 216 95 239 91 9 -2 -22 -19 -69 -37 -47 -19 -127 -60 -179 -92 -52 -33 -98 -59 -102 -59 -5 0 -25 -12 -46 -26 -40 -27 -342 -177 -403 -199 -19 -8 -96 -41 -170 -75 -318 -145 -556 -210 -771 -212 -72 0 -157 17 -145 29 3 3 46 12 96 19 49 7 103 20 118 28 25 14 8 15 -190 16 -216 0 -216 0 -295 30 -114 44 -141 62 -149 105 -3 19 -3 50 0 68 8 44 87 147 214 277 56 58 102 109 102 112 0 10 -88 36 -161 48 -44 8 -78 8 -101 2 -25 -7 -41 -6 -59 3 -13 7 -67 25 -119 40 -52 15 -103 31 -113 36 -19 10 -37 4 -37 -11 0 -6 15 -16 34 -24 18 -8 36 -18 39 -23 8 -13 -11 -40 -21 -28 -10 14 -118 19 -126 6 -4 -5 14 -19 40 -30 26 -12 44 -26 42 -33 -3 -7 -25 -17 -51 -23 -47 -10 -52 -26 -12 -38 169 -52 156 -53 253 31 34 30 65 52 68 50 3 -3 -30 -37 -73 -74 -135 -119 -201 -191 -212 -232 -17 -57 -13 -149 9 -241 22 -91 37 -115 132 -218 32 -34 58 -67 58 -73 0 -5 -12 -13 -27 -16 -73 -17 -164 -103 -242 -229 -36 -58 -36 -59 -36 -165 1 -159 29 -189 124 -135 l43 25 -6 -27 c-7 -31 -49 -73 -72 -73 -8 0 -14 -5 -14 -11 0 -17 75 -5 135 21 108 46 51 -16 -96 -105 -57 -35 -105 -68 -107 -74 -8 -24 30 -21 95 8 104 46 100 30 -15 -57 -100 -76 -304 -205 -378 -239 -54 -25 -56 -27 -33 -35 43 -16 496 20 580 46 24 7 96 30 159 49 164 51 317 112 375 151 60 40 241 193 347 295 91 86 127 138 163 232 15 38 32 72 38 76 5 3 111 12 233 19 l223 13 182 60 c100 34 185 58 188 55 3 -2 -1 -14 -8 -26 -11 -17 -11 -22 1 -29 19 -12 66 -11 74 2 6 10 204 109 218 109 13 0 5 -37 -21 -102 -14 -38 -24 -70 -21 -73 9 -9 59 18 200 105 101 63 134 88 125 96 -14 13 -205 97 -262 114 -22 7 -62 24 -90 36 -27 13 -62 24 -77 24 -14 0 -82 -29 -150 -64 -129 -67 -210 -96 -409 -146 -116 -30 -288 -60 -338 -60 l-24 0 23 25 c13 14 21 28 18 31 -4 3 -102 10 -219 15 -271 12 -416 43 -591 129 -73 35 -89 54 -35 40 79 -21 237 -34 422 -34 185 -1 209 1 315 27 168 40 282 74 394 119 54 21 101 36 104 33 3 -2 -2 -13 -10 -22 -19 -23 -48 -97 -48 -124 0 -19 4 -21 39 -15 75 12 171 46 171 61 0 8 -6 15 -14 15 -20 0 -46 39 -46 67 0 16 -6 23 -19 23 -30 0 -34 17 -9 34 13 8 84 31 158 51 74 20 176 56 227 80 93 44 110 43 73 -5 -46 -58 -17 -96 67 -87 72 8 90 -3 105 -60 11 -47 78 -133 102 -133 6 0 48 14 94 32 64 25 84 37 88 55 9 35 -1 50 -47 73 -29 15 -38 25 -31 32 8 8 48 4 136 -11 91 -15 132 -18 151 -11 15 6 44 10 66 10 59 0 79 14 79 55 0 34 -3 37 -75 72 -41 21 -75 40 -75 44 0 27 116 12 182 -23 38 -21 57 -23 173 -23 113 0 136 3 178 22 26 12 47 29 47 37 0 9 -18 25 -40 36 -23 12 -40 28 -40 38 0 55 104 207 164 239 18 10 18 12 2 34 -25 37 -95 88 -135 99 -156 44 -457 63 -566 36z m-2338 -1126 c100 -22 163 -30 234 -30 117 0 133 -4 118 -32 -6 -11 -9 -22 -6 -24 2 -2 35 0 73 6 82 12 154 13 154 3 0 -45 -176 -217 -330 -325 -115 -80 -258 -167 -302 -185 -24 -9 -65 -31 -93 -49 -46 -29 -318 -161 -409 -198 -83 -34 -47 0 79 74 42 25 100 63 128 85 29 22 91 62 139 90 90 51 340 251 358 286 13 23 16 22 -109 49 -104 23 -136 35 -111 43 133 42 201 69 197 80 -2 6 -60 40 -129 76 -118 62 -150 81 -135 81 4 0 68 -13 144 -30z"/>
 <path d="M3768 2288 c-28 -22 -62 -148 -40 -148 12 0 126 101 130 114 2 11 -47 46 -65 46 -5 0 -16 -6 -25 -12z"/>
 <path d="M3926 2245 c-16 -17 -11 -45 8 -45 7 0 25 14 41 30 l29 30 -31 0 c-18 0 -38 -7 -47 -15z"/>
 <path d="M4288 2249 c-22 -12 -24 -49 -3 -49 14 0 35 29 35 49 0 14 -10 13 -32 0z"/>
 <path d="M4102 2238 c-14 -14 -16 -38 -4 -38 12 0 32 23 32 37 0 16 -12 17 -28 1z"/>
 <path d="M4178 2213 c-77 -84 -76 -103 7 -103 63 0 65 1 65 25 0 28 -29 105 -39 105 -4 0 -19 -12 -33 -27z"/>
 <path d="M3984 2155 c-17 -23 -27 -49 -28 -73 -1 -36 0 -37 39 -40 22 -2 48 3 58 10 17 12 17 16 2 57 -8 24 -15 52 -15 62 0 30 -27 22 -56 -16z"/>
 <path d="M3815 2156 c-22 -22 -45 -81 -45 -117 0 -20 41 -59 64 -59 9 0 26 5 37 10 21 12 25 56 13 144 -8 54 -30 61 -69 22z"/>
 <path d="M1439 2095 c-45 -30 -169 -164 -169 -184 0 -15 18 0 152 129 85 82 92 105 17 55z"/>
 <path d="M3633 2103 c-17 -6 -17 -84 0 -107 10 -14 21 -16 50 -11 35 7 37 10 37 44 0 62 -38 94 -87 74z"/>
 <path d="M1895 2090 c3 -5 13 -10 21 -10 8 0 12 5 9 10 -3 6 -13 10 -21 10 -8 0 -12 -4 -9 -10z"/>
 <path d="M3448 2088 c-35 -28 -44 -110 -14 -130 18 -12 91 -9 104 4 13 13 17 114 5 121 -23 13 -81 16 -95 5z"/>
 <path d="M3225 2045 c-28 -27 -33 -66 -10 -85 21 -17 85 -23 118 -11 21 8 27 17 27 40 0 17 -5 42 -12 56 -16 36 -88 36 -123 0z"/>
 <path d="M3049 2012 c-13 -12 -20 -25 -16 -34 7 -19 71 -42 93 -34 20 8 34 47 22 69 -12 23 -69 22 -99 -1z"/>
 <path d="M1835 1938 c-6 -21 -17 -34 -30 -36 -41 -6 -49 -12 -37 -24 18 -18 15 -24 -18 -38 -33 -14 -40 -30 -12 -30 9 0 38 -7 63 -16 27 -10 57 -14 72 -10 33 8 152 125 140 137 -14 14 -119 49 -146 49 -17 0 -25 -8 -32 -32z"/>
 <path d="M5507 1913 c-4 -3 -7 -17 -7 -30 0 -17 6 -23 23 -23 12 0 29 5 37 10 13 9 12 13 -9 30 -25 21 -34 24 -44 13z"/>
 <path d="M1622 1838 c2 -6 10 -14 16 -16 7 -2 10 2 6 12 -7 18 -28 22 -22 4z"/>
 <path d="M5657 1824 c-11 -12 3 -24 29 -24 27 0 32 15 8 24 -20 8 -29 8 -37 0z"/>
 <path d="M1024 1698 c-101 -103 -204 -220 -204 -232 0 -3 9 -6 19 -6 17 0 100 85 249 254 48 55 64 86 44 86 -4 0 -53 -46 -108 -102z"/>
 <path d="M1410 1708 c0 -9 13 -18 31 -22 33 -6 118 -56 119 -68 0 -5 -45 -8 -99 -8 -60 0 -102 -4 -106 -11 -4 -6 2 -13 14 -16 12 -3 21 -9 21 -13 0 -4 25 -15 55 -25 30 -9 55 -20 55 -25 0 -4 -27 -13 -60 -19 -111 -22 -89 -51 40 -51 117 0 152 12 191 63 18 23 45 53 61 67 23 22 45 83 27 77 -4 -1 -15 5 -25 14 -13 12 -54 20 -129 28 -60 6 -129 14 -152 17 -34 5 -43 4 -43 -8z"/>
 <path d="M4093 1584 c-13 -6 -8 -51 7 -68 11 -12 80 13 80 29 0 25 -58 51 -87 39z"/>
 <path d="M693 1324 c-6 -3 -46 -46 -88 -95 -62 -74 -74 -93 -65 -105 21 -24 35 -16 91 53 109 135 125 172 62 147z"/>
 <path d="M1270 1311 c0 -6 -7 -11 -16 -11 -8 0 -12 -4 -9 -10 3 -5 14 -10 24 -10 9 0 26 -7 37 -15 28 -21 6 -32 -83 -40 -40 -4 -70 -11 -68 -16 3 -4 26 -18 50 -30 25 -12 45 -26 45 -31 0 -8 -3 -9 -83 -13 -54 -3 -62 -7 -53 -30 5 -13 26 -15 148 -13 l142 3 53 94 c29 51 53 95 53 96 0 11 -71 25 -147 31 -67 5 -93 3 -93 -5z"/>
 <path d="M1063 973 c-18 -2 -33 -8 -33 -14 0 -5 -10 -9 -21 -9 -18 0 -19 -2 -9 -15 7 -8 20 -15 29 -15 10 0 25 -6 35 -13 18 -13 5 -19 -161 -69 -50 -15 -40 -21 21 -14 39 5 64 3 91 -8 39 -17 43 -42 6 -40 -34 1 -24 -24 12 -31 17 -3 66 -5 107 -3 84 3 75 -5 130 125 48 114 49 113 -72 111 -57 0 -118 -3 -135 -5z"/>
 <path d="M403 938 c-36 -40 -153 -219 -153 -234 0 -31 28 -11 80 58 68 89 130 180 130 191 0 16 -38 6 -57 -15z"/>
 <path d="M4175 914 c-127 -35 -199 -72 -203 -105 -4 -34 47 -67 228 -147 246 -109 370 -145 635 -187 164 -25 280 -32 289 -16 9 14 -124 92 -304 178 -156 75 -355 185 -482 266 -31 21 -61 37 -65 36 -4 0 -48 -11 -98 -25z"/>
 </g>
<g id="layer104" fill="#d4dbe4" stroke="none">
 <path d="M4785 2558 c4 -46 10 -101 14 -123 6 -40 7 -40 51 -40 l45 0 -3 40 c-5 77 -67 205 -100 205 -12 0 -13 -13 -7 -82z"/>
 <path d="M5556 2518 c-3 -13 -6 -38 -6 -55 0 -27 5 -34 26 -39 42 -11 48 8 24 65 -25 56 -35 63 -44 29z"/>
 <path d="M4711 2438 c-26 -77 -26 -80 2 -76 27 4 54 71 43 111 -10 42 -22 32 -45 -35z"/>
 <path d="M3599 2304 c-17 -21 0 -48 33 -52 18 -2 32 5 47 24 11 15 21 31 21 35 0 16 -87 10 -101 -7z"/>
 <path d="M3768 2288 c-28 -22 -62 -148 -40 -148 12 0 126 101 130 114 2 11 -47 46 -65 46 -5 0 -16 -6 -25 -12z"/>
 <path d="M3926 2245 c-16 -17 -11 -45 8 -45 7 0 25 14 41 30 l29 30 -31 0 c-18 0 -38 -7 -47 -15z"/>
 <path d="M4288 2249 c-22 -12 -24 -49 -3 -49 14 0 35 29 35 49 0 14 -10 13 -32 0z"/>
 <path d="M4102 2238 c-14 -14 -16 -38 -4 -38 12 0 32 23 32 37 0 16 -12 17 -28 1z"/>
 <path d="M4178 2213 c-77 -84 -76 -103 7 -103 63 0 65 1 65 25 0 28 -29 105 -39 105 -4 0 -19 -12 -33 -27z"/>
 <path d="M3984 2155 c-17 -23 -27 -49 -28 -73 -1 -36 0 -37 39 -40 22 -2 48 3 58 10 17 12 17 16 2 57 -8 24 -15 52 -15 62 0 30 -27 22 -56 -16z"/>
 <path d="M3815 2156 c-22 -22 -45 -81 -45 -117 0 -20 41 -59 64 -59 9 0 26 5 37 10 21 12 25 56 13 144 -8 54 -30 61 -69 22z"/>
 <path d="M3633 2103 c-17 -6 -17 -84 0 -107 10 -14 21 -16 50 -11 35 7 37 10 37 44 0 62 -38 94 -87 74z"/>
 <path d="M3448 2088 c-35 -28 -44 -110 -14 -130 18 -12 91 -9 104 4 13 13 17 114 5 121 -23 13 -81 16 -95 5z"/>
 <path d="M3225 2045 c-28 -27 -33 -66 -10 -85 21 -17 85 -23 118 -11 21 8 27 17 27 40 0 17 -5 42 -12 56 -16 36 -88 36 -123 0z"/>
 <path d="M3052 2014 c-44 -30 -16 -64 53 -64 28 0 37 5 44 23 5 12 5 30 -1 40 -11 22 -65 23 -96 1z"/>
 <path d="M4093 1584 c-13 -6 -8 -51 7 -68 11 -12 80 13 80 29 0 25 -58 51 -87 39z"/>
 <path d="M3740 1573 c-30 -12 -78 -104 -79 -152 -1 -22 2 -23 38 -17 75 12 171 46 171 61 0 8 -6 15 -14 15 -20 0 -46 39 -46 67 0 13 -6 23 -14 23 -8 0 -20 2 -28 4 -7 3 -20 2 -28 -1z"/>
 </g>

</svg>